<svg width="768" height="768" viewBox="0 0 768 768" xmlns="http://www.w3.org/2000/svg">
<defs>
<pattern id="favPattern" width="26" height="26" patternUnits="userSpaceOnUse" patternTransform="rotate(115)">
<rect width="26" height="26" fill="#131211"/>
<rect width="3" height="26" fill="#FECF41" opacity="0.09"/>
</pattern>
</defs>
<rect width="768" height="768" fill="#131211"/>
<rect width="768" height="768" fill="url(#favPattern)"/>
<g transform="translate(42.5, 0)">
<path d="M376.152 13.0884C380.166 10.0072 387.356 4.21529 392.513 4.95295C397.978 5.7343 402.396 6.21527 408.007 6.21767C412.924 6.21977 419.109 8.97921 422.481 12.7705C434.382 13.5778 440.282 18.4673 449.156 26.0922C449.778 26.6266 453.338 27.6262 454.422 28.0795C460.712 30.7093 464.882 34.1524 468.528 39.8525C470.79 41.0289 473.235 41.468 475.332 42.5608C483.234 46.6787 490.5 54.3245 496.444 60.8675C497.907 62.48 495.589 65.0087 496.384 67.3517C497.69 68.2682 500.668 68.6068 502.757 69.389C503.207 69.8499 510.678 80.8295 510.806 81.1629C510.157 85.0599 512.085 87.0227 513.589 91.28C512.764 93.3808 511.522 94.9269 512.036 96.9909C513.116 98.0874 514.489 98.1902 516.057 98.5584C518.51 103.296 517.805 105.733 517.677 110.72C517.501 117.775 515.475 120.318 511.331 125.547C513.803 129.935 514.125 133.163 513.019 137.939C520.134 148.265 519.98 164.707 511.642 174.223C511.537 177.595 510.663 183.361 510.262 186.898L507.138 213.413C506.571 218.112 506.916 223.836 506.357 228.596C506.016 231.495 504.583 234.82 504.325 237.845L496.463 329.697C495.541 339.539 495.128 355.783 493.125 365.03C496.441 365.938 500.765 366.22 504.306 367.09C509.365 368.106 514.601 370.255 519.665 371.093C527.395 372.373 535.452 373.001 543.215 374.317C545.968 374.783 549.284 374.509 552.03 374.905C563.06 376.492 573.795 376.154 584.818 374.834C587.815 374.602 592.102 373.076 594.956 372.942C603.969 372.521 611.369 371.073 619.546 367.039C621.353 366.148 625.198 365.476 627.508 364.51C630.925 363.079 635.389 360.638 638.963 359.967L641.922 361.564C654.933 360.528 658.485 359.774 668.035 370.171C669.902 372.203 672.64 373.799 674.429 376.304C678.904 382.582 674.973 386.932 669.824 390.498C670.731 391.196 671.643 391.972 672.532 392.707C675.738 405.022 670.919 399.978 667.686 403.098C666.977 405.431 667.937 407.276 668.728 409.631C666.786 413.939 662.394 418.612 659.25 422.201C658.47 423.086 655.399 421.927 654.937 424.184C655.834 424.394 656.827 424.102 657.818 423.944L658.219 424.267C658.785 429.956 650.118 434.688 647.511 439.908C644.96 440.426 641.243 440.669 638.91 441.569C637.41 442.151 628.45 445.492 627.988 446.403C628.971 446.932 628.979 446.767 629.511 447.599C629.226 447.956 628.412 448.574 627.988 448.634C618.492 449.992 611.883 456.689 602.157 452.474C594.371 455.808 596.415 454.068 589.278 450.922C587.41 450.104 585.467 449.467 583.479 449.021C578.881 447.948 574.421 447.157 569.665 446.583C558.297 445.214 547.341 439.822 535.815 439.184C533.989 439.031 530.508 439.458 528.79 438.821C521.548 436.289 514.605 434.216 507.576 431.111C502.022 428.662 500.476 432.914 495.375 425.433L485.759 422.928C484.525 429.082 484.086 433.728 483.306 439.859C482.732 444.404 479.619 450.794 478.464 455.429C477.308 460.072 476.232 464.628 475.287 469.327C474.717 472.169 472.054 476.523 471.607 479.163C469.139 493.833 462.666 507.611 457.055 521.317C456.083 523.687 453.84 525.648 452.719 527.816C451.665 529.856 451.2 532.859 450.202 534.993C446.421 542.084 443.609 549.479 440.439 556.852C438.448 560.868 437.304 563.234 436.358 567.592C434.588 575.767 429.386 586.747 426.059 594.311C424.589 593.174 425.204 593.324 423.561 593.249C422.271 593.129 420.587 592.758 419.567 593.388C416.656 598.709 409.646 620.148 407.111 621.899C405.824 620.992 406.705 618.266 406.979 616.841C405.888 618.194 405.123 619.421 403.592 620.159L402.97 619.931C402.632 615.652 409.875 606.536 408.821 604.908C407.778 605.242 407.482 606.524 407.017 607.567L406.518 607.616L405.764 605.666L405.303 605.594C402.707 609.176 405.558 613.522 401.394 614.883C397.625 616.121 400.491 621.933 400.029 622.837C398.964 624.922 394.212 635.096 393.12 636.277C392.955 636.337 390.533 637.237 390.495 637.286C388.556 639.746 386.643 643.623 385.12 646.334C384.621 647.231 385.649 650.144 385.049 651.288C382.529 656.099 380.372 660.974 378.005 665.819C377.6 666.648 374.778 668.954 374.346 669.933C373.562 671.707 373.826 673.574 372.667 675.078C371.502 673.567 374.423 667.672 374.191 666.277L374.458 666.243C374.271 666.266 372.593 666.479 372.593 666.479C371.58 666.157 370.909 664.897 370.137 666.003C366.024 671.891 366.861 678.277 363.651 684.168C358.781 686.939 357.211 692.148 354.505 696.768C348.209 707.523 343.925 720.401 337.566 730.912C337.263 730.222 337.093 729.416 336.895 728.677C337.072 728.193 337.007 728.171 337.012 727.627L335.476 726.937C335.436 725.002 338.151 722.223 339.32 720.509C343.295 714.678 345.615 707.647 348.583 701.279C350.215 697.777 352.202 695.662 352.341 691.552L351.998 691.368C349.703 694.563 347.419 703.694 342.925 704.377C338.442 705.056 339.342 710.834 336.322 712.507C335.989 710.816 339.423 704.242 340.31 702.157C333.628 707.988 331.435 720.149 325.159 726.693C324.23 727.661 321.09 728.201 320.368 728.733C318.812 729.884 319.077 730.529 316.881 731.759L316.485 731.564C317.198 727.091 324.979 719.062 327.547 713.238L327.747 712.781C329.024 710.073 329.372 708.532 331.021 705.749C331.264 705.296 331.193 705.194 331.247 704.621C332.327 703.199 333.087 701.654 333.905 699.989C337.832 691.991 342.097 683.426 343.911 674.677C344.015 674.178 343.246 671.921 343.052 671.339C344.107 669.382 349.901 656.958 350.145 655.334L349.566 655.158C347.109 656.508 346.592 664.034 344.539 665.313L344.081 664.983C344.687 662.752 348.396 654.187 348.289 652.762L347.67 652.638C343.932 655.346 343.261 665.711 339.804 668.339L339.424 668.193C340.77 664.061 342.495 660.018 343.917 655.901C346.127 649.496 348.11 642.986 350.521 636.652C354.434 626.381 382.956 556.496 381.992 551.534C379.993 552.817 373.797 572.452 372.044 575.654C371.167 578.242 367.605 582.052 367.044 584.602C365.586 591.228 362.734 603.404 359.224 609.056C357.789 611.617 354.735 618.599 353.622 620.111C352.673 619.687 352.658 619.237 351.981 618.172C350.039 622.166 348.655 624.468 347.293 628.889C346.66 630.944 345.3 636.652 344.533 638.126L343.758 638.186C342.771 636.633 344.401 629.924 345.133 628.342C348.386 621.262 347.128 614.999 347.474 607.481C347.854 599.223 352.46 590.969 354.009 582.772C354.176 581.891 355.312 581.898 355.52 580.574C354.592 580.574 354.571 580.631 353.72 580.304C352.777 574.766 363.178 556.192 364.103 549.809C364.23 548.936 364.132 546.258 364.558 545.609C368.391 539.321 370.043 532.109 372.208 525.026C378.485 504.494 384.28 483.716 389.257 462.903C393.863 444.386 397.726 425.696 400.843 406.871C402.388 397.376 403.814 387.858 405.115 378.326C405.517 375.236 406.012 371.986 406.222 368.891C406.687 362.081 408.87 355.276 409.395 348.519C410.344 336.364 410.272 323.824 410.621 311.627L411.634 267.458C411.731 262.667 411.983 257.91 412.106 253.131C412.196 249.85 411.431 245.593 411.536 242.44C411.99 228.761 411.293 215.617 409.537 202.064C409.038 198.203 407.238 193.299 406.308 189.326C404.283 180.68 402.947 171.94 400.761 163.369C399.512 158.465 401.143 153.955 397.543 149.029L397.317 149.323C397.456 151.61 398.015 152.803 398.818 154.945C397.483 155.87 396.447 156.847 394.895 156.944C391.703 155.552 392.603 151.002 391.984 147.925C391.466 145.336 391.001 143.072 390.259 140.503C383.365 115.949 375.545 91.6644 366.812 67.7023C363.27 58.0547 355.141 54.3107 356.212 43.4488C354.351 40.526 351.315 37.2139 350.825 33.676C350.428 30.8085 352.649 25.7016 354.23 23.2345C355.061 21.937 357.558 22.0622 359.056 21.8026C363.643 21.0079 362.744 17.336 364.368 15.3088C366.071 13.1833 373.377 13.1652 376.152 13.0884ZM374.819 585.078C375.338 584.441 375.338 584.133 375.609 583.327C375.867 581.767 375.95 581.587 376.805 580.252L377.165 580.267C376.88 582.194 376.591 583.653 376.655 585.618C377.874 584.673 380.754 577.443 380.578 575.857C379.528 576.397 377.803 578.662 376.899 579.731C377.795 575.433 379.104 572.512 380.683 568.439C381.94 565.196 382.952 561.464 383.939 558.093C381.508 560.932 375.856 576.937 374.794 580.792C374.021 582.603 373.381 584.163 372.71 586.023C371.893 588.479 371.273 590.557 370.316 592.961C371.105 595.878 370.81 596.516 369.618 599.264C365.046 609.813 362.514 621.273 357.93 631.874C357.281 633.378 356.544 634.766 356.342 636.397L356.846 636.659C358.692 635.287 372.535 597.176 374.799 591.299C375.459 589.589 375.128 586.942 374.819 585.078ZM325.754 720.307C324.423 722.197 323.24 724.173 322.028 726.138C322.22 726.783 322.045 726.551 322.457 726.896C323.938 725.021 325.326 723.052 326.084 720.764L325.754 720.307ZM383.346 547.713C384.565 545.388 385.822 541.289 386.546 538.687C386.422 538.473 386.253 538.128 386.092 537.978C384.614 540.982 383.492 543.588 382.814 546.873C383.035 547.301 383.02 547.391 383.346 547.713ZM413.581 590.024C411.9 593.182 411.233 594.978 410.006 598.293C412.377 598.927 413.854 599.148 413.333 602.444L414.466 599.636L416.896 595.057C415.463 596.373 414.586 597.416 412.744 598.004L412.106 597.738C411.934 594.622 414.526 592.184 414.211 590.414L413.581 590.024ZM355.039 640.353C354.146 642.071 352.005 647.407 351.747 649.331L352.206 649.777C353.754 647.632 354.893 643.822 355.543 641.238C355.32 640.616 355.474 640.747 355.039 640.353Z" fill="#FECF41"/>
<path d="M351.981 618.173C353.67 615.683 354.166 611.615 356.535 609.481C357.535 608.577 357.979 608.892 359.224 609.057C357.789 611.618 354.735 618.601 353.623 620.112C352.673 619.688 352.659 619.238 351.981 618.173Z" fill="#FECF41"/>
<path d="M372.71 586.023L373.383 587.276L373.853 587.373L374.349 585.378L374.82 585.078C375.129 586.942 375.459 589.589 374.799 591.299C372.536 597.176 358.693 635.287 356.847 636.659L356.343 636.397C356.545 634.766 357.282 633.378 357.93 631.874C362.515 621.273 365.046 609.813 369.618 599.264C370.81 596.516 371.106 595.878 370.316 592.961C371.273 590.557 371.894 588.479 372.71 586.023Z" fill="#FECF41" fill-opacity="0.0117647"/>
<path d="M374.794 580.793C375.856 576.938 381.508 560.933 383.939 558.094C382.952 561.465 381.94 565.196 380.683 568.44C379.104 572.512 377.795 575.434 376.899 579.731C377.803 578.662 379.528 576.397 380.578 575.857C380.755 577.444 377.874 584.674 376.655 585.619C376.591 583.654 376.88 582.195 377.165 580.268L376.805 580.252C375.95 581.587 375.867 581.768 375.609 583.328C375.474 582.323 375.17 581.719 374.794 580.793Z" fill="#FECF41" fill-opacity="0.0196078"/>
<path d="M413.581 590.025L414.211 590.415C414.526 592.185 411.934 594.623 412.107 597.739L412.744 598.005C414.586 597.417 415.464 596.374 416.896 595.058L414.466 599.637L413.333 602.445C413.855 599.149 412.377 598.928 410.006 598.294C411.233 594.979 411.9 593.183 413.581 590.025Z" fill="#FECF41" fill-opacity="0.0117647"/>
<path d="M355.039 640.354C355.474 640.747 355.32 640.616 355.543 641.239C354.893 643.822 353.754 647.632 352.206 649.777L351.747 649.331C352.005 647.407 354.146 642.071 355.039 640.354Z" fill="#FECF41" fill-opacity="0.027451"/>
<path d="M386.092 537.979C386.253 538.129 386.422 538.474 386.546 538.687C385.822 541.29 384.566 545.389 383.347 547.714C383.02 547.391 383.035 547.301 382.814 546.874C383.493 543.589 384.614 540.982 386.092 537.979Z" fill="#FECF41" fill-opacity="0.0196078"/>
<path d="M325.755 720.307L326.084 720.764C325.326 723.052 323.938 725.02 322.457 726.895C322.046 726.55 322.22 726.783 322.028 726.138C323.241 724.173 324.423 722.197 325.755 720.307Z" fill="#FECF41" fill-opacity="0.109804"/>
<path d="M260.933 50.8558C264.783 41.7361 264.913 37.595 274.974 33.8403C279.568 32.1259 282.843 31.6996 287.832 31.6331C296.736 30.7617 300.361 31.5175 307.356 37.2678C308.347 38.0829 313.873 38.6113 315.057 40.4158C319.451 46.9749 322.173 47.6953 329.05 50.8351C329.826 51.1895 332.644 55.7581 333.541 56.6806C339.624 63.0099 344.606 69.4783 349.406 76.8444C350.715 78.8529 353.386 81.689 354.469 84.0031C355.061 86.4598 356.498 92.4118 356.768 94.9516C357.013 98.8734 359.392 104.287 359.638 107.915C359.837 114.939 359.785 122.962 356.975 129.485C356.061 131.606 353.442 132.933 353.343 135.744C353.122 142.047 347.125 146.579 348.718 152.66C349.054 153.939 342.492 163.404 341.082 165.061C340.632 172.456 339.259 171.628 336.559 178.391C335.921 179.991 336.32 184.293 335.658 185.829C333.584 190.671 330.313 195.194 328.23 200.014C324.93 207.649 321.76 215.345 318.2 222.864C313.701 232.383 308.949 241.721 303.513 250.745C302.237 252.863 301.013 257.325 299.828 258.975C295.307 265.27 292.372 268.613 289.463 275.992C291.271 274.663 293.181 273.142 295.169 272.136C291.116 278.035 286.196 278.545 282.727 284.578C282.181 285.526 281.47 286.299 281.31 287.406C283.68 285.931 285.734 282.596 288.712 280.307C287.653 282.194 281.108 292.093 279.581 293.169C274.415 296.811 274.973 296.96 271.282 302.132C262.356 314.636 251.301 326.102 241.264 337.639C248.522 345.153 255.811 351.586 262.083 360.102C263.446 361.954 268.752 365.668 270.7 367.703C281.383 378.845 292.264 389.888 301.816 402.027C303.578 404.266 307.518 406.325 309.619 408.305C314.193 412.617 319.898 417.125 322.8 422.757C323.6 423.121 327.979 425.078 328.404 425.555C330.1 427.467 339.45 438.856 341.113 439.478C341.612 440.911 341.864 441.222 341.482 442.598C338.761 444.871 333.634 441.488 330.671 441.878L330.365 442.302C331.267 442.771 332.041 443.191 332.918 443.708L332.983 444.211C330.059 446.266 326.403 446.075 323.038 445.493C322.112 445.332 321.189 445.16 320.268 444.972L320.04 445.336L320.48 446.543C318.135 449.082 311.168 444.057 309.123 442.358C308.419 443.333 308.332 443.562 307.263 444.173C305.5 444.466 303.835 443.57 302.083 442.898C300.624 442.396 294.57 440.063 293.521 440.255C294.218 441.612 296.739 441.92 298.142 443.57C294.372 445.696 279.75 436.103 276.414 433.456L271.04 433.606C271.23 433.778 271.42 433.951 271.609 434.123C273.921 436.853 289.242 443.322 290.088 446.093C288.83 446.84 283.573 444.147 281.065 443.813L280.882 444.128C283.55 446.78 287.835 448.4 289.772 450.668L289.598 451.115C287.009 451.355 277.243 448.508 274.506 446.978C271.695 445.403 267.969 443.093 264.763 441.953C264.562 441.882 262.43 442.478 262.271 442.426C256.323 440.465 248.395 433.745 243.039 430.025C237.659 426.29 237.999 428.922 233.323 425.42C225.712 419.72 218.56 413.847 211.571 407.453C209.568 405.62 206.158 403.403 204.52 401.641C199.525 396.267 194.344 390.867 189.492 385.4C185.834 388.752 182.915 390.65 179.119 393.691C173.488 398.202 169.166 402.26 162.938 406.107L161.699 404.993C159.119 405.605 157.062 407.686 155.156 409.467L154.541 408.267C152.153 408.008 151.062 410.727 149.219 412.171C146.735 413.446 142.98 417.398 140.71 419.495C139.351 420.676 137.468 421.767 136.879 423.353C137.614 424.167 137.681 423.762 138.492 424.253C137.046 425.851 133.842 429.616 131.619 429.432L131.337 428.813C132.2 427.227 133.741 426.623 133.998 425.326C132.767 425.232 132.016 425.881 130.911 426.53L130.496 426.241L130.368 425.315C125.11 425.405 104.855 440.701 100.451 444.8C98.5703 445.478 93.2642 447.635 92.4942 449.45C93.8583 449.225 94.8913 448.966 96.2352 448.628L95.9047 448.677L95.769 449.558C92.3603 451.936 92.0261 449.611 89.8976 451.171C84.5356 455.097 75.9657 461.776 70.2898 464.986L70.2733 462.571C75.1499 457.197 81.3599 453.953 86.8307 449.547C91.4125 445.857 98.4987 440.843 102.507 436.838C102.403 436.34 102.254 435.905 102.034 435.447C106.122 432.177 107.91 430.737 111.388 426.826C104.559 429.882 91.7985 440.843 85.2502 445.441C82.9052 447.087 79.7756 447.961 77.3572 449.705C74.3026 451.91 73.5446 454.722 70.1986 456.275C68.4441 457.501 63.9342 460.565 62.0814 461.18L61.6024 460.925C61.5571 459.852 61.7116 459.545 62.0165 458.54C58.9998 461.543 56.5386 463.673 52.4215 465.121C51.0356 465.612 49.6786 466.842 48.5842 467.825L47.5205 466.883C54.9881 459.792 67.6493 451.865 75.7598 444.151C69.9886 445.816 70.0918 447.803 66.0286 449.757C61.1175 452.116 54.7289 458.993 50.8762 460.827L50.6812 460.55L51.5469 458.202C49.7165 457.077 27.2028 477.106 22.858 476.982C20.6912 476.918 19.5873 478.625 17.5443 479.007C17.7052 478.096 21.0427 476.303 21.9201 475.812C27.7768 472.531 33.3258 468.072 38.628 463.902C43.2331 460.711 47.8708 456.86 52.273 453.335C46.8532 455.168 42.0786 459.432 38.0343 463.336C36.7652 463.73 36.2408 463.647 35.4819 462.653L35.748 461.881C36.9425 460.943 38.961 459.725 38.9089 458.123C37.6303 458.367 36.5631 459.713 35.5797 460.681C33.8799 461.787 21.438 470.236 21.137 470.251L21.1579 469.711C23.3511 467.772 25.9987 465.522 27.9673 463.373C23.7423 465.181 20.8374 468.278 16.853 470.326C17.6236 468.706 21.8846 466.377 23.4769 463.681C18.853 465.601 17.1539 467.292 13.083 469.846L11.2012 468.983C13.6067 467.06 14.8392 466.126 17.4674 464.562C19.3271 454.418 30.3699 452.127 34.4532 446.465C33.7492 446.161 31.9954 447.091 31.0353 447.462L30.9482 447.222C33.6718 442.43 43.7634 434.87 47.7463 430.152C48.3794 429.402 49.4056 429.106 50.3721 429.065L50.976 430.051L51.4062 430.088C53.3626 428.168 59.7669 422.307 59.7882 420.177C59.831 415.992 66.8748 413.33 69.6668 411.305C70.7511 410.521 74.8881 405.901 75.6799 404.622C75.6221 404.082 75.5603 403.535 75.5621 402.995C75.5685 400.868 91.8424 382.587 94.3324 380.123C96.944 377.543 100.173 375.635 102.739 372.995C102.882 372.848 103.021 372.696 103.166 372.551C105.171 370.552 104.501 368.002 106.078 365.976C107.354 364.337 108.94 362.891 110.283 361.298C112.958 358.125 115.401 354.76 118.082 351.584C121.039 348.08 124.263 344.738 127.121 341.162C129.37 338.347 130.77 334.894 133.029 332.076C134.842 329.814 137.834 328.667 139.571 326.332C143.541 320.997 145.835 314.08 150.408 308.344C153.16 304.894 159.668 302.913 160.841 298.542C159.826 298.491 159.576 298.634 158.578 298.857L158.424 298.405C159.267 296.263 161.809 292.981 163.246 290.947C163.914 291.786 164.152 291.916 164.33 292.969C167.214 291.415 171.744 284.291 173.621 281.341C177.808 274.764 182.434 268.688 187.104 262.452C189.692 258.652 192.188 254.719 194.686 250.864C195.365 249.817 198.103 245.858 198.272 244.954C199.244 239.731 200.387 236.761 205.429 234.334C206.981 231.778 210.583 226.226 211.433 223.589C213.297 217.81 215.114 212.517 217.903 207.008C219.594 203.67 223.185 202.688 222.835 198.866C222.64 196.771 225.164 195.407 225.916 193.874C227.415 190.816 228.845 187.595 230.157 184.448C233.135 177.305 233.833 170.377 238.149 163.692C240.142 160.604 241.569 155.13 243.192 151.707C244.474 148.103 244.825 142.395 246.084 138.895C248.087 133.332 249.63 132.113 250.194 125.921C250.895 119.019 251.415 112.098 251.914 105.185C252.454 101.421 253.797 97.9498 253.987 94.1244C254.22 89.435 250.48 83.627 251.599 79.0168C253.673 70.4716 246.344 61.9618 253.108 54.5311C254.897 52.5646 258.504 51.5713 260.933 50.8558ZM82.1483 439.565C84.4689 437.948 90.9752 433.223 92.1638 430.835C91.8075 430.358 92.0261 430.478 91.5847 430.362C89.6625 431.967 82.2548 437.528 81.6806 439.37L82.1483 439.565ZM83.8785 441.038C81.8288 442.272 76.3351 446.048 75.3142 448.028L75.4294 448.475C77.3988 448.025 82.1423 443.21 84.479 441.473C86.2553 440.472 90.6879 438.226 91.075 436.25C88.4825 435.837 85.4407 439.291 83.8785 441.038Z" fill="#FECF41"/>
<path d="M62.0166 458.54C62.58 458.015 68.6673 455 69.8184 454.426C70.1143 455.303 70.0735 455.337 70.1987 456.275C68.4442 457.501 63.9343 460.565 62.0815 461.18L61.6025 460.925C61.5571 459.852 61.7117 459.545 62.0166 458.54Z" fill="#FECF41"/>
<path d="M302.083 442.897L302.27 441.172C304.005 439.826 305.965 442.593 309.123 442.357C308.419 443.332 308.332 443.561 307.263 444.172C305.5 444.464 303.835 443.568 302.083 442.897Z" fill="#FECF41"/>
<path d="M91.5847 430.361C92.0262 430.478 91.8075 430.358 92.1638 430.834C90.9752 433.223 84.4689 437.948 82.1484 439.564L81.6807 439.369C82.2549 437.528 89.6625 431.966 91.5847 430.361Z" fill="#FECF41" fill-opacity="0.027451"/>
<path d="M83.8783 441.037L84.4788 441.472C82.1421 443.208 77.3986 448.023 75.4291 448.473L75.314 448.027C76.3349 446.047 81.8285 442.271 83.8783 441.037Z" fill="#FECF41" fill-opacity="0.117647"/>
<path d="M162.938 406.106C169.166 402.258 173.488 398.201 179.119 393.69C182.915 390.648 185.834 388.751 189.492 385.398C194.344 390.866 199.525 396.266 204.52 401.64C206.158 403.402 209.568 405.618 211.571 407.452C218.56 413.846 225.712 419.718 233.323 425.418C237.999 428.921 237.658 426.288 243.039 430.023C248.395 433.743 256.323 440.463 262.27 442.425C262.43 442.477 264.562 441.881 264.763 441.952C267.968 443.092 271.695 445.402 274.506 446.977C277.243 448.507 287.009 451.353 289.598 451.113L289.772 450.667C287.835 448.398 283.55 446.778 280.882 444.127L281.065 443.812C283.573 444.146 288.83 446.838 290.088 446.092C289.242 443.321 273.921 436.852 271.609 434.122C271.419 433.95 271.23 433.777 271.04 433.605L276.414 433.455C279.75 436.102 294.372 445.695 298.142 443.568C296.738 441.918 294.218 441.611 293.52 440.253C294.57 440.062 300.624 442.395 302.082 442.897C303.835 443.568 305.5 444.465 307.263 444.172C308.331 443.561 308.419 443.332 309.123 442.357C311.168 444.056 318.135 449.081 320.48 446.542L320.04 445.335L320.268 444.971C321.189 445.158 322.112 445.331 323.038 445.492C326.403 446.073 330.058 446.265 332.983 444.21L332.918 443.707C332.041 443.19 331.267 442.77 330.364 442.301L330.671 441.877C333.634 441.487 338.761 444.87 341.482 442.597C341.864 441.221 341.612 440.91 341.113 439.477C342.402 438.915 341.796 438.918 342.966 439.196C345.029 441.783 342.437 444.36 340.533 446.107C339.123 445.335 337.185 444.022 335.509 444.442C334.933 444.588 334.445 445.826 334.022 446.46C328.381 446.985 322.953 448.376 317.325 448.62C312.832 448.811 310.999 443.898 306.125 446.797C305.367 447.251 301.119 444.18 300.055 444.577C298.865 444.866 296.695 445.533 295.382 445.89C294.245 446.197 292.397 446.531 291.484 447.221C290.971 450.262 292.078 452.073 290.055 453.592C289.249 453.66 276.876 449.973 275.138 449.478C272.918 448.278 269.981 446.527 267.928 445.2C265.589 443.685 262.12 444.888 260.999 444.307C251.423 439.361 244.509 431.193 233.869 428.137C233.551 428.047 229.371 424.425 228.647 423.926C222.491 419.658 217.03 414.791 211.569 409.687C208.953 407.242 205.457 405.153 202.824 402.652C201.049 400.781 191.044 387.825 188.826 389.122C180.952 393.731 172.776 400.86 165.464 406.578C159.253 411.438 160.621 413.557 152.085 414.562C150.983 415.567 149.779 417.543 149.036 418.087C143.416 422.193 138.964 426.671 134.087 431.625C132.608 431.658 130.6 431.906 129.395 431.22C128.769 429.543 129.981 429.686 128.896 429.168C127.699 432.101 126.335 434.786 122.877 434.67L122.306 435.18L123.378 435.566C123.762 436.833 123.752 436.215 123.404 437.493C122.665 437.97 122.117 437.853 121.227 437.835C120.15 438.536 120.489 438.517 119.799 439.143C115.072 443.437 108.958 447.555 103.712 451.282C101.402 452.925 100.769 452.28 98.158 454.642L97.6037 454.447L97.4424 453.517C97.8925 453.011 97.8872 453.206 97.9618 452.696C102.361 450.54 116.233 440.332 119.149 436.616L118.984 436.406C113.637 439.443 104.844 446.055 99.5773 449.778L98.4914 449.4L98.2743 448.11C101.387 448.08 114.648 436.215 118.879 434.542C120.034 434.085 124.43 432.513 124.863 431.943C123.145 427.83 103.741 443.088 100.97 444.888L100.45 444.798C104.854 440.7 125.11 425.403 130.367 425.313L130.496 426.24L130.911 426.528C132.016 425.88 132.767 425.231 133.998 425.325C133.741 426.622 132.2 427.226 131.337 428.812L131.619 429.431C133.842 429.615 137.045 425.85 138.492 424.252C141.435 421.556 153.281 411.993 155.156 409.466C157.061 407.685 159.119 405.603 161.699 404.992C160.448 407.201 155.399 409.983 152.607 413.673C156.737 411.888 159.781 409.327 162.938 406.106Z" fill="#FECF41" fill-opacity="0.0235294"/>
<path d="M325.654 712.514C325.452 708.093 334.028 691.203 336.906 687.445C337.171 690.202 332.247 699.179 331.098 702.198C330.562 703.604 330.718 703.593 331.247 704.62C331.193 705.194 331.265 705.295 331.022 705.749L330.235 705.494C328.205 706.784 328.621 710.039 325.654 712.514Z" fill="#FECF41"/>
<path d="M100.97 444.888C103.741 443.088 123.145 427.829 124.863 431.943C124.43 432.513 120.034 434.084 118.879 434.542C114.648 436.214 101.387 448.079 98.2744 448.109C98.963 446.737 99.8808 445.979 100.97 444.888Z" fill="#FECF41"/>
<path d="M149.219 412.171C151.062 410.727 152.153 408.008 154.542 408.267L155.156 409.467C153.282 411.995 141.435 421.557 138.492 424.253C137.682 423.762 137.614 424.167 136.879 423.353C137.468 421.767 139.351 420.676 140.711 419.495C142.759 419.405 148.904 414.286 149.219 412.171Z" fill="#FECF41" fill-opacity="0.988235"/>
<path d="M99.5775 449.779C104.845 446.055 113.637 439.444 118.984 436.406L119.149 436.616C116.234 440.333 102.362 450.54 97.9621 452.696L97.7363 452.111C97.9749 450.844 98.3664 450.893 99.5775 449.779Z" fill="#FECF41"/>
<path d="M404.916 625.613C405.734 625.981 405.404 625.726 405.854 626.464C405.367 627.949 402.865 633.05 402.062 634.538C400.221 637.958 397.996 646.673 395.806 649.265L395.198 648.8C394.643 646.823 403.637 627.953 404.916 625.613Z" fill="#FECF41"/>
<path d="M336.896 728.678C337.093 729.416 337.264 730.223 337.567 730.913C336.32 734.333 330.449 747.143 327.975 749.006C327.845 747.9 335.839 730.976 336.896 728.678Z" fill="#FECF41" fill-opacity="0.984314"/>
<path d="M48.5841 467.824C47.7086 468.608 46.7991 469.354 45.8584 470.059C43.5836 471.762 38.7366 475.845 36.3564 475.493L36.4125 475.009C40.0591 472.272 43.8304 469.572 47.5204 466.883L48.5841 467.824Z" fill="#FECF41"/>
<path d="M326.764 751.338L327.565 751.495L327.828 751.93C327.192 753.783 322.975 761.403 321.713 764.035L321.057 763.934L320.833 763.169C321.826 760.09 324.701 753.719 326.764 751.338Z" fill="#FECF41"/>
<path d="M313.514 240.559L314.174 240.983C313.975 242.786 309.171 250.655 307.633 252.146L307.097 251.711L307.053 250.935C309.131 246.688 310.357 244.051 313.514 240.559Z" fill="#FECF41"/>
<path d="M172.528 279.104C170.577 283.629 164.789 291.017 164.33 292.968C164.152 291.916 163.914 291.786 163.246 290.947C166.818 286.581 168.098 282.809 172.528 279.104Z" fill="#FECF41" fill-opacity="0.984314"/>
<path d="M38.0342 463.335C42.0785 459.432 46.8532 455.168 52.2729 453.334C47.8707 456.859 43.233 460.71 38.6279 463.901L38.0342 463.335Z" fill="#FECF41" fill-opacity="0.0392157"/>
<path d="M95.2626 438.607L95.8826 438.919L95.9017 439.609C93.7496 442.661 91.8322 444.682 88.2135 445.852C87.6457 445.444 87.8317 445.721 87.6948 444.994C89.8826 442.676 92.6817 440.475 95.2626 438.607Z" fill="#FECF41"/>
<path d="M423.561 593.25C425.204 593.325 424.589 593.175 426.059 594.311C425.504 595.972 423.156 601.856 421.9 602.752C421.461 600.135 423.542 596.377 424.041 593.981L423.561 593.25Z" fill="#FECF41"/>
<path d="M349.289 629.043C349.491 629.212 349.761 629.598 349.937 629.827C349.841 633.798 348.064 637.447 346.246 640.908L345.691 639.854C345.548 637.807 348.411 631.848 349.289 629.043Z" fill="#FECF41"/>
<path d="M161.699 404.992L162.939 406.106C159.781 409.327 156.737 411.888 152.607 413.673C155.4 409.983 160.448 407.201 161.699 404.992Z" fill="#FECF41"/>
<path d="M355.317 700.748C356.504 702.522 351.893 709.954 350.217 711.274C349.942 710.899 349.964 710.809 349.803 710.352C351.451 706.523 352.931 704.176 355.317 700.748Z" fill="#FECF41"/>
<path d="M70.2734 462.57L70.2899 464.985C67.8842 466.339 64.2734 469.047 61.9656 468.788L61.7871 468.413C63.1595 467.085 67.7893 464.532 70.2734 462.57Z" fill="#FECF41"/>
<path d="M3.51611 475.582C5.75521 473.096 8.50829 470.951 11.2012 468.982L13.0831 469.845C9.68548 472.08 7.27795 473.936 3.51611 475.582Z" fill="#FECF41"/>
<path d="M359.16 691.662C359.786 691.951 359.54 691.722 359.855 692.401C359.345 694.445 358.152 697.613 356.795 699.233C355.91 698.787 356.235 699.128 355.889 698.09C356.396 695.498 357.478 693.653 359.16 691.662Z" fill="#FECF41"/>
<path d="M149.219 412.17C148.904 414.285 142.759 419.404 140.71 419.494C142.98 417.397 146.735 413.445 149.219 412.17Z" fill="#FECF41" fill-opacity="0.054902"/>
<path d="M325.654 712.514C328.621 710.039 328.205 706.784 330.235 705.494L331.021 705.749C329.372 708.532 329.025 710.073 327.747 712.78C326.557 712.199 327.201 712.39 325.654 712.514Z" fill="#FECF41" fill-opacity="0.0392157"/>
<path d="M35.5796 460.681C36.563 459.713 37.6302 458.367 38.9088 458.123C38.9609 459.724 36.9424 460.943 35.7479 461.881L35.5796 460.681Z" fill="#FECF41" fill-opacity="0.0470588"/>
</g>
</svg>
